<svg xmlns="http://www.w3.org/2000/svg" xmlns:se="http://svg-edit.googlecode.com" xmlns:xlink="http://www.w3.org/1999/xlink" xmlns:dc="http://purl.org/dc/elements/1.1/" xmlns:cc="http://creativecommons.org/ns#" xmlns:rdf="http://www.w3.org/1999/02/22-rdf-syntax-ns#" xmlns:inkscape="http://www.inkscape.org/namespaces/inkscape" width="644" height="242" style="">                                    <title>my vector image</title>                                    <!-- Created with Vector Paint - http://www.vectorpaint.yaks.com/ https://chrome.google.com/webstore/detail/hnbpdiengicdefcjecjbnjnoifekhgdo -->                                    <rect id="backgroundrect" width="100%" height="100%" x="0" y="0" fill="#FFFFFF" stroke="none" class="" style=""/>                                <g class="currentLayer" style=""><title>Layer 1</title><polyline fill="#b6b6b6" stroke="#222222" stroke-width="2" stroke-linejoin="round" stroke-dashoffset="" fill-rule="nonzero" marker-start="" marker-mid="" marker-end="" id="svg_1" points="1,139.69046783447266 1.5952377319335938,139.69046783447266 2.7857131958007812,139.69046783447266 5.166666030883789,139.69046783447266 6.95237922668457,139.69046783447266 9.928569793701172,139.09522247314453 12.30952262878418,138.49999237060547 15.285711288452148,137.90474700927734 16.4761905670166,137.90474700927734 17.66666603088379,137.90474700927734 18.857141494750977,137.90474700927734 19.45237922668457,137.90474700927734 20.047616958618164,137.90474700927734 20.642854690551758,137.90474700927734 20.642854690551758,137.90474700927734 21.23809242248535,137.90474700927734 22.42856788635254,137.90474700927734 22.42856788635254,138.49999237060547 23.619047164916992,138.49999237060547 24.214284896850586,138.49999237060547 24.80952262878418,138.49999237060547 25.404760360717773,138.49999237060547 26.59523582458496,138.49999237060547 27.78571128845215,138.49999237060547 28.976186752319336,138.49999237060547 30.761903762817383,138.49999237060547 31.95237922668457,138.49999237060547 33.73809242248535,138.49999237060547 34.92856788635254,138.49999237060547 35.52380561828613,138.49999237060547 36.11904716491699,138.49999237060547 36.714284896850586,138.49999237060547 37.90476036071777,138.49999237060547 39.690473556518555,138.49999237060547 41.476186752319336,139.09522247314453 43.26190376281738,139.69046783447266 45.047616958618164,140.88094329833984 46.83333396911621,142.07141876220703 47.428571701049805,142.66666412353516 48.61904716491699,143.26189422607422 49.214284896850586,143.26189422607422 49.80952262878418,143.26189422607422 50.40476036071777,143.26189422607422 50.99999809265137,143.26189422607422 51.59523582458496,143.26189422607422 52.190473556518555,143.26189422607422 52.78571128845215,143.26189422607422 53.38094902038574,143.26189422607422 55.76189994812012,142.07141876220703 56.952375411987305,142.07141876220703 59.33332633972168,141.47618865966797 62.90476036071777,140.88094329833984 65.88094902038574,140.28571319580078 68.26189994812012,140.28571319580078 70.64285087585449,140.28571319580078 71.83332633972168,140.28571319580078 71.83332633972168,140.28571319580078 74.21428489685059,139.09522247314453 75.99999809265137,138.49999237060547 77.78571128845215,138.49999237060547 79.57142448425293,138.49999237060547 81.9523754119873,138.49999237060547 84.33332633972168,138.49999237060547 86.11903953552246,139.09522247314453 88.49999809265137,139.69046783447266 90.88094902038574,140.28571319580078 92.66666221618652,140.28571319580078 94.4523754119873,140.28571319580078 96.23808860778809,140.28571319580078 96.83332633972168,140.28571319580078 98.02380180358887,140.28571319580078 99.21427726745605,139.69046783447266 100.40476036071777,139.69046783447266 100.99999809265137,139.69046783447266 101.59523582458496,139.69046783447266 102.78571128845215,139.09522247314453 104.57142448425293,138.49999237060547 105.76189994812012,138.49999237060547 108.73808860778809,137.30951690673828 111.11903953552246,137.30951690673828 111.71428489685059,137.30951690673828 115.28571128845215,136.1190414428711 117.0714168548584,135.52379608154297 120.64285850524902,134.33332061767578 123.0238094329834,134.33332061767578 125.40476036071777,133.73809051513672 126.59523582458496,133.73809051513672 128.3809413909912,133.73809051513672 131.3571376800537,133.73809051513672 132.5476131439209,133.73809051513672 133.7380886077881,133.1428451538086 134.92856407165527,133.1428451538086 136.7142848968506,132.54761505126953 138.49999046325684,132.54761505126953 140.8809413909912,131.35713958740234 143.2618923187256,130.76189422607422 146.2380886077881,130.16666412353516 149.80951499938965,128.97618865966797 149.80951499938965,128.97618865966797 153.3809413909912,128.97618865966797 157.5476131439209,128.38094329833984 161.7142848968506,127.19046783447266 165.28571128845215,127.19046783447266 169.45236778259277,126.5952377319336 173.02379417419434,126.5952377319336 174.80951499938965,126.5952377319336 176.59523582458496,126.5952377319336 177.78571128845215,127.19046783447266 179.5714168548584,127.19046783447266 181.3571376800537,127.78571319580078 183.7380886077881,128.38094329833984 184.92856407165527,128.38094329833984 186.7142848968506,129.57141876220703 189.69046592712402,131.35713958740234 190.28571128845215,131.9523696899414 192.66666221618652,134.33332061767578 195.64284324645996,136.71427154541016 197.42856407165527,138.49999237060547 199.21426963806152,140.28571319580078 200.40476036071777,141.47618865966797 201.59523582458496,142.07141876220703 202.19046592712402,143.26189422607422 202.78571128845215,143.85713958740234 203.3809413909912,144.4523696899414 203.3809413909912,144.4523696899414 203.97618675231934,145.04761505126953 204.5714168548584,145.04761505126953 205.16666221618652,145.04761505126953 205.7618923187256,145.04761505126953 206.95236778259277,145.04761505126953 207.5476131439209,145.04761505126953 208.14284324645996,145.04761505126953 209.33331871032715,145.04761505126953 210.52379417419434,145.04761505126953 212.9047451019287,145.04761505126953 214.69046592712402,145.04761505126953 217.66666221618652,145.04761505126953 221.2380886077881,145.04761505126953 223.61903953552246,145.04761505126953 225.4047451019287,145.04761505126953 227.78571128845215,145.04761505126953 228.97618675231934,145.6428451538086 229.5714168548584,145.6428451538086 230.7618923187256,145.04761505126953 237.30951499938965,140.28571319580078 240.88095664978027,138.49999237060547 244.45236778259277,136.1190414428711 248.0238094329834,134.9285659790039 251.5952205657959,134.33332061767578 253.97617149353027,134.33332061767578 256.9523677825928,134.33332061767578 258.738073348999,134.33332061767578 260.5238094329834,134.33332061767578 261.7142696380615,134.33332061767578 262.9047603607178,134.33332061767578 264.0952205657959,133.73809051513672 265.88092613220215,132.54761505126953 267.6666622161865,131.35713958740234 268.85712242126465,130.76189422607422 270.642858505249,130.16666412353516 272.4285640716553,129.57141876220703 275.4047603607178,128.38094329833984 277.78571128845215,127.19046783447266 279.5714168548584,126.5952377319336 280.76190757751465,126.5952377319336 281.35712242126465,125.99999237060547 282.5476131439209,124.80951690673828 286.7142696380615,123.02379608154297 290.28571128845215,122.4285659790039 293.2618770599365,121.83332061767578 294.4523677825928,121.23809051513672 299.80951499938965,119.4523696899414 305.1666622161865,117.66666412353516 308.142858505249,116.47618865966797 313.4999752044678,115.28571319580078 315.88092613220215,114.0952377319336 316.4761714935303,114.0952377319336 319.4523677825928,113.49999237060547 324.80951499938965,113.49999237060547 328.9761714935303,113.49999237060547 330.1666622161865,113.49999237060547 331.9523677825928,114.0952377319336 336.7142696380615,114.0952377319336 342.0714168548584,112.9047622680664 347.4285640716553,110.52379608154297 348.0238094329834,110.52379608154297 350.9999752044678,109.9285659790039 353.38092613220215,108.73809051513672 355.1666622161865,106.9523696899414 355.7618770599365,103.38094329833984 356.9523677825928,99.80951690673828 357.5476131439209,96.83332061767578 358.1428279876709,96.23809051513672 359.33331871032715,95.6428451538086 359.9285640716553,95.6428451538086 360.5238094329834,95.6428451538086 362.30951499938965,95.6428451538086 366.4761714935303,93.26189422607422 368.2618770599365,92.07141876220703 370.0476131439209,92.07141876220703 371.83331871032715,91.47618865966797 375.4047603607178,91.47618865966797 381.9523677825928,89.0952377319336 387.30951499938965,86.1190414428711 391.4761714935303,83.73809051513672 394.4523677825928,81.9523696899414 398.6190242767334,81.9523696899414 400.4047603607178,81.9523696899414 400.9999752044678,81.9523696899414 400.9999752044678,81.9523696899414 402.190465927124,81.9523696899414 403.38092613220215,81.9523696899414 405.1666622161865,81.9523696899414 415.88092613220215,78.38094329833984 418.85712242126465,77.78571319580078 424.80951499938965,76.5952377319336 426.5952205657959,75.99999237060547 430.1666622161865,74.21428680419922 437.90472984313965,72.4285659790039 443.2618770599365,71.83332061767578 443.85712242126465,71.23809051513672 445.0476131439209,70.6428451538086 448.6190242767334,67.66666412353516 453.9761714935303,63.49999237060547 461.1190242767334,57.54761505126953 466.4761714935303,52.78571319580078 470.0476131439209,49.21427917480469 473.0237789154053,46.83332824707031 475.9999752044678,45.642852783203125 478.9761714935303,45.642852783203125 481.9523677825928,45.642852783203125 484.33331871032715,46.23809051513672 487.90472984313965,48.0238037109375 489.690465927124,49.21427917480469 490.285680770874,49.21427917480469 491.4761714935303,49.21427917480469 493.8570919036865,48.0238037109375 494.4523677825928,48.0238037109375 497.4285640716553,47.428565979003906 502.190465927124,46.23809051513672 506.3570919036865,46.23809051513672 510.5237789154053,46.83332824707031 514.0951900482178,46.83332824707031 526.5951900482178,39.69047546386719 543.2618770599365,25.404754638671875 546.238073348999,23.0238037109375 548.0237789154053,19.452377319335938 549.2142696380615,17.071426391601562 549.8094844818115,16.47618865966797 549.8094844818115,15.880950927734375 550.4047603607178,15.880950927734375 551.5951900482178,14.690475463867188 556.3570919036865,11.714279174804688 558.142858505249,11.119041442871094 560.5237789154053,9.928565979003906 565.285680770874,9.333328247070312 571.238073348999,7.547615051269531 580.7618770599365,2.7857131958007812 583.142858505249,1.5952377319335938 584.333288192749,1.5952377319335938 588.4999752044678,1 593.2618770599365,1 593.8570919036865,1 594.4523677825928,1 598.0237789154053,2.1904754638671875 607.5475826263428,8.738090515136719 606.9523677825928,8.738090515136719 606.3570919036865,8.738090515136719 606.9523677825928,8.738090515136719 621.238073348999,2.7857131958007812 632.5475826263428,3.380950927734375 634.333288192749,2.1904754638671875 639.690465927124,1.5952377319335938 641.4761714935303,4.5714263916015625 642.6666622161865,9.928565979003906 642.6666622161865,15.285713195800781 642.6666622161865,15.880950927734375 642.6666622161865,15.880950927734375 642.6666622161865,27.190475463867188 643.2618770599365,40.880950927734375 642.6666622161865,53.97618865966797 640.285680770874,77.78571319580078 640.285680770874,80.16666412353516 640.285680770874,80.16666412353516 639.690465927124,80.16666412353516 639.690465927124,81.35713958740234 639.690465927124,86.71428680419922 639.690465927124,89.0952377319336 639.690465927124,105.76189422607422 639.0951900482178,129.57141876220703 639.0951900482178,130.76189422607422 636.1189937591553,137.30951690673828 633.738073348999,142.66666412353516 625.9999752044678,165.88094329833984 625.4047603607178,175.40474700927734 624.8094844818115,180.16666412353516 624.8094844818115,180.76189422607422 621.833288192749,186.11902618408203 599.2142696380615,189.69046783447266 555.1666622161865,198.02381134033203 551.5951900482178,196.23807525634766 533.142858505249,198.02381134033203 514.690465927124,202.78571319580078 495.0475826263428,209.9285659790039 456.9523677825928,223.02381134033203 424.80951499938965,230.76187896728516 423.6190242767334,231.9523696899414 422.4285640716553,231.9523696899414 422.4285640716553,232.54761505126953 410.5237789154053,232.54761505126953 406.9523677825928,233.14286041259766 372.4285640716553,237.9047622680664 334.33331871032715,240.88092803955078 328.9761714935303,240.88092803955078 328.9761714935303,240.88092803955078 328.9761714935303,241.4761734008789 328.9761714935303,241.4761734008789 318.85712242126465,238.4999771118164 289.690465927124,228.9761734008789 278.38092613220215,227.78571319580078 277.78571128845215,227.78571319580078 277.78571128845215,228.38092803955078 277.78571128845215,228.38092803955078 268.85712242126465,226.59522247314453 256.9523677825928,223.02381134033203 230.16666221618652,219.4523696899414 230.16666221618652,219.4523696899414 230.16666221618652,220.04761505126953 230.16666221618652,220.04761505126953 230.16666221618652,220.04761505126953 215.8809413909912,217.07141876220703 186.7142848968506,215.88092803955078 181.3571376800537,217.66666412353516 180.7618923187256,217.66666412353516 180.7618923187256,218.26187896728516 180.16666221618652,218.26187896728516 171.83331871032715,215.28571319580078 146.8333339691162,210.52381134033203 145.64284324645996,210.52381134033203 145.64284324645996,210.52381134033203 145.64284324645996,211.11902618408203 133.14285850524902,205.16666412353516 126.59523582458496,202.19046783447266 106.35713768005371,195.04761505126953 100.99999809265137,195.64286041259766 100.99999809265137,195.64286041259766 100.40476036071777,196.23807525634766 49.80952262878418,199.21427154541016 49.80952262878418,199.21427154541016 49.80952262878418,199.21427154541016 46.83333396911621,199.21427154541016 44.45237922668457,199.21427154541016 29.571428298950195,201.59522247314453 27.190473556518555,201.59522247314453 15.880949020385742,200.9999771118164 15.880949020385742,200.9999771118164 14.690473556518555,200.4047622680664 12.904760360717773,199.80951690673828 11.714284896850586,198.61902618408203 8.738094329833984,196.83332061767578 6.357141494750977,195.04761505126953 5.761903762817383,192.66666412353516 5.761903762817383,189.69046783447266 5.166666030883789,188.4999771118164 3.9761886596679688,177.78569793701172 3.9761886596679688,175.40474700927734 3.380950927734375,165.28569793701172 3.9761886596679688,163.49999237060547 3.9761886596679688,164.09522247314453 3.9761886596679688,162.90474700927734 3.9761886596679688,160.52379608154297 3.9761886596679688,159.9285659790039 3.380950927734375,158.73809051513672 3.380950927734375,155.16666412353516 2.7857131958007812,153.38094329833984 2.1904754638671875,150.40474700927734 2.1904754638671875,148.6190414428711 2.1904754638671875,148.02379608154297 2.1904754638671875,146.83332061767578 2.1904754638671875,146.83332061767578 2.1904754638671875,146.23809051513672 2.1904754638671875,145.6428451538086 2.1904754638671875,144.4523696899414 2.1904754638671875,143.85713958740234 2.1904754638671875,143.26189422607422 2.1904754638671875,142.66666412353516 2.1904754638671875,142.66666412353516 2.1904754638671875,142.07141876220703 2.1904754638671875,140.88094329833984 2.1904754638671875,140.28571319580078 2.1904754638671875,140.28571319580078 2.1904754638671875,139.69046783447266 2.1904754638671875,139.69046783447266 2.1904754638671875,139.09522247314453 2.1904754638671875,139.09522247314453 " style="color: rgb(0, 0, 0);" class="selected" fill-opacity="1"/></g></svg>