<svg xmlns="http://www.w3.org/2000/svg" xmlns:se="http://svg-edit.googlecode.com" xmlns:xlink="http://www.w3.org/1999/xlink" xmlns:dc="http://purl.org/dc/elements/1.1/" xmlns:cc="http://creativecommons.org/ns#" xmlns:rdf="http://www.w3.org/1999/02/22-rdf-syntax-ns#" xmlns:inkscape="http://www.inkscape.org/namespaces/inkscape" width="644" height="242" style="">                                    <title>my vector image</title>                                    <!-- Created with Vector Paint - http://www.vectorpaint.yaks.com/ https://chrome.google.com/webstore/detail/hnbpdiengicdefcjecjbnjnoifekhgdo -->                                    <rect id="backgroundrect" width="100%" height="100%" x="0" y="0" fill="#FFFFFF" stroke="none" class="" style=""/>                                <g class="currentLayer" style=""><title>Layer 1</title><polyline fill="#b6b6b6" stroke="#222222" stroke-width="2" stroke-linejoin="round" stroke-dashoffset="" fill-rule="nonzero" marker-start="" marker-mid="" marker-end="" id="svg_2" points="2.519044321870183,73.67856777423921 3.114282393455639,73.67856777423921 4.304758536626551,73.67856777423921 6.685710822968389,73.67856777423921 8.47142503772477,73.67856777423921 12.042853467237535,73.67856777423921 17.399996111506667,73.67856777423921 20.971424541019417,73.67856777423921 22.7571387557758,73.67856777423921 26.923805256874015,73.67856777423921 30.49523368638677,73.08332970265374 36.44761440224137,71.89285355948283 40.614280903339576,71.29761548789736 42.99523318968142,70.70237741631192 45.37618547602325,70.70237741631192 47.16189969077963,70.70237741631192 48.947613905536016,70.70237741631192 50.13809004870693,70.70237741631192 50.7333281202924,70.70237741631192 51.32856619187784,71.29761548789736 51.32856619187784,71.29761548789736 51.92380426346331,71.29761548789736 52.51904233504878,71.29761548789736 53.70951847821969,71.29761548789736 54.304756549805134,71.29761548789736 55.495232692976074,71.29761548789736 56.090470764561516,71.29761548789736 57.28094690773245,71.29761548789736 58.471423050903375,71.29761548789736 59.06666112248881,71.29761548789736 60.85237533724519,71.29761548789736 62.042851480416104,71.29761548789736 63.82856569517249,70.70237741631192 65.01904183834343,70.10713934472645 66.20951798151434,69.51190127314098 67.39999412468525,68.91666320155554 69.18570833944163,68.32142512997007 70.37618448261254,67.7261870583846 72.16189869736893,67.13094898679915 73.94761291212531,65.94047284362824 75.13808905529622,65.34523477204277 76.9238032700526,64.7499967004573 78.11427941322351,64.15475862887186 79.30475555639443,64.15475862887186 80.49523169956537,64.15475862887186 81.68570784273628,63.55952055728639 82.87618398590719,63.55952055728639 83.47142205749265,63.55952055728639 84.0666601290781,62.964282485700956 85.25713627224904,62.964282485700956 87.04285048700542,62.964282485700956 87.63808855859087,62.964282485700956 88.82856470176178,62.36904441411548 89.42380277334725,62.36904441411548 90.01904084493272,62.36904441411548 90.61427891651816,62.36904441411548 91.20951698810363,62.964282485700956 92.39999313127454,63.55952055728639 93.59046927444545,64.15475862887186 94.78094541761641,64.7499967004573 95.37618348920184,65.34523477204277 95.97142156078732,65.94047284362824 95.97142156078732,67.13094898679915 96.56665963237278,67.7261870583846 96.56665963237278,68.91666320155554 96.56665963237278,69.51190127314098 96.56665963237278,70.70237741631192 96.56665963237278,71.89285355948283 95.97142156078732,73.67856777423921 95.97142156078732,74.86904391741012 95.37618348920184,76.6547581321665 95.37618348920184,78.44047234692289 95.37618348920184,80.22618656167927 95.37618348920184,81.41666270485018 95.37618348920184,82.6071388480211 95.37618348920184,84.39285306277748 95.37618348920184,85.58332920594839 95.37618348920184,86.7738053491193 95.37618348920184,87.36904342070477 95.37618348920184,87.96428149229023 95.97142156078732,88.55951956387568 95.97142156078732,89.15475763546114 96.56665963237278,89.7499957070466 97.16189770395822,90.34523377863208 97.75713577554369,90.34523377863208 98.35237384712913,90.34523377863208 98.9476119187146,90.34523377863208 100.73332613347098,90.94047185021753 101.9238022766419,90.94047185021753 103.11427841981279,91.53570992180299 103.70951649139828,91.53570992180299 105.49523070615466,91.53570992180299 106.0904687777401,91.53570992180299 106.68570684932557,91.53570992180299 107.28094492091104,91.53570992180299 107.28094492091104,91.53570992180299 107.87618299249648,91.53570992180299 108.47142106408195,91.53570992180299 108.47142106408195,91.53570992180299 109.06665913566742,91.53570992180299 109.06665913566742,91.53570992180299 109.66189720725286,91.53570992180299 109.66189720725286,90.94047185021753 110.25713527883833,90.94047185021753 110.25713527883833,90.34523377863208 110.85237335042378,89.7499957070466 110.85237335042378,89.7499957070466 111.44761142200925,89.15475763546114 112.0428494935947,89.15475763546114 112.63808756518016,88.55951956387568 113.8285637083511,87.96428149229023 114.42380177993655,87.36904342070477 116.80475406627839,86.17856727753386 117.9952302094493,85.58332920594839 119.18570635262022,84.39285306277748 120.37618249579113,83.797614991192 121.56665863896207,83.797614991192 122.16189671054751,83.20237691960656 122.75713478213298,83.20237691960656 122.75713478213298,83.20237691960656 123.35237285371842,83.20237691960656 123.35237285371842,82.6071388480211 123.94761092530389,82.6071388480211 123.94761092530389,82.6071388480211 123.94761092530389,82.6071388480211 124.54284899688938,82.6071388480211 125.73332514006029,82.01190077643562 126.32856321164574,81.41666270485018 127.51903935481666,80.82142463326471 128.1142774264021,80.22618656167927 128.70951549798758,80.22618656167927 129.30475356957305,80.22618656167927 130.49522971274394,79.6309484900938 131.0904677843294,79.6309484900938 132.28094392750035,79.6309484900938 133.47142007067123,79.6309484900938 134.66189621384217,79.6309484900938 135.85237235701305,79.03571041850832 137.042848500184,79.03571041850832 137.63808657176946,79.03571041850832 138.8285627149404,79.03571041850832 140.0190388581113,79.03571041850832 141.20951500128223,79.03571041850832 141.8047530728677,79.03571041850832 142.99522921603858,79.03571041850832 143.59046728762405,79.6309484900938 145.3761815023804,80.22618656167927 146.56665764555135,80.22618656167927 147.75713378872229,80.82142463326471 148.94760993189317,80.82142463326471 149.54284800347864,81.41666270485018 150.1380860750641,81.41666270485018 150.73332414664958,81.41666270485018 151.92380028982046,81.41666270485018 152.51903836140593,82.01190077643562 153.7095145045769,82.6071388480211 154.89999064774776,83.797614991192 156.68570486250417,84.39285306277748 157.87618100567505,85.58332920594839 159.066657148846,86.17856727753386 160.25713329201693,86.7738053491193 160.25713329201693,86.7738053491193 161.44760943518781,86.7738053491193 163.23332364994423,87.36904342070477 165.01903786470058,87.96428149229023 167.3999901510424,88.55951956387568 167.99522822262787,88.55951956387568 169.78094243738423,89.15475763546114 170.97141858055517,89.15475763546114 171.56665665214064,89.15475763546114 172.75713279531158,89.15475763546114 173.352370866897,89.15475763546114 173.94760893848246,89.15475763546114 174.54284701006796,89.15475763546114 175.1380850816534,89.15475763546114 176.92379929640978,87.96428149229023 177.51903736799522,87.36904342070477 178.70951351116616,86.17856727753386 180.49522772592252,84.98809113436292 181.68570386909346,83.797614991192 182.28094194067887,82.6071388480211 183.4714180838498,81.41666270485018 184.66189422702075,80.22618656167927 186.4476084417771,78.44047234692289 187.63808458494805,77.24999620375195 188.8285607281189,76.05952006058104 190.01903687128987,75.4642819889956 191.2095130144608,73.67856777423921 192.3999891576317,73.08332970265374 192.9952272292172,71.89285355948283 193.59046530080263,71.29761548789736 194.1857033723881,70.10713934472645 194.78094144397352,68.91666320155554 195.37617951555902,68.32142512997007 195.97141758714446,67.13094898679915 196.56665565872993,65.94047284362824 196.56665565872993,65.34523477204277 197.1618937303154,64.15475862887186 198.35236987348628,62.964282485700956 198.94760794507175,62.36904441411548 199.54284601665722,61.77380634253001 200.73332215982816,61.17856827094457 201.32856023141358,60.5833301993591 202.51903637458452,59.988092127773626 203.11427444617,59.988092127773626 204.30475058934087,59.988092127773626 206.09046480409728,59.392854056188185 207.28094094726822,59.392854056188185 209.06665516202455,59.392854056188185 210.25713130519551,59.392854056188185 211.44760744836637,59.988092127773626 212.63808359153734,60.5833301993591 213.82855973470825,62.36904441411548 215.61427394946466,63.55952055728639 217.39998816422099,64.15475862887186 219.1857023789774,65.94047284362824 220.37617852214828,66.53571091521368 221.56665466531922,67.7261870583846 222.1618927369047,68.91666320155554 222.75713080849016,69.51190127314098 223.35236888007557,69.51190127314098 223.94760695166104,70.70237741631192 223.94760695166104,70.70237741631192 224.5428450232465,71.29761548789736 225.13808309483198,72.48809163106827 225.73332116641745,73.08332970265374 226.32855923800287,74.27380584582465 226.92379730958834,74.86904391741012 226.92379730958834,76.05952006058104 227.51903538117378,76.05952006058104 228.11427345275928,76.05952006058104 229.3047495959302,77.24999620375195 230.4952257391011,77.8452342753374 231.68570188227207,79.03571041850832 232.87617802544293,80.22618656167927 233.4714160970284,80.82142463326471 234.66189224019934,82.01190077643562 235.85236838337022,82.6071388480211 236.4476064549557,83.20237691960656 237.63808259812663,83.797614991192 238.8285587412975,84.39285306277748 240.01903488446845,84.98809113436292 241.2095110276394,86.17856727753386 241.80474909922486,86.7738053491193 242.39998717081028,87.36904342070477 242.99522524239575,87.36904342070477 243.59046331398122,87.96428149229023 244.1857013855667,88.55951956387568 244.78093945715216,88.55951956387568 245.37617752873757,88.55951956387568 245.37617752873757,89.15475763546114 245.97141560032304,89.15475763546114 246.5666536719085,89.15475763546114 246.5666536719085,89.15475763546114 246.5666536719085,89.7499957070466 247.16189174349398,89.7499957070466 247.75712981507942,90.34523377863208 248.35236788666484,90.34523377863208 248.94760595825034,90.34523377863208 250.13808210142125,90.34523377863208 251.32855824459216,90.34523377863208 253.70951053093404,89.7499957070466 255.4952247456904,88.55951956387568 258.4714151036177,86.7738053491193 260.2571293183741,84.39285306277748 261.447605461545,82.6071388480211 262.6380816047159,79.03571041850832 263.82855774788686,75.4642819889956 265.01903389105775,70.10713934472645 267.99522424898504,64.15475862887186 273.35236689325416,53.4404733403336 275.13808110801057,50.464282982406274 281.09046182386516,42.13094998020986 283.471414110207,39.15475962228257 285.85236639654886,36.178569264355275 287.6380806113052,34.39285504959889 288.82855675447615,33.20237890642795 289.42379482606157,32.60714083484251 290.01903289764704,31.4166646916716 290.6142709692325,31.4166646916716 290.6142709692325,31.4166646916716 290.6142709692325,31.4166646916716 291.209509040818,31.4166646916716 291.209509040818,31.4166646916716 291.209509040818,32.60714083484251 291.80474711240345,33.20237890642795 292.39998518398886,34.39285504959889 294.18569939874527,36.77380733594072 295.37617554191615,39.74999769386801 297.16188975667256,42.13094998020986 298.9476039714289,44.51190226655169 301.3285562577708,46.89285455289354 303.7095085441126,50.464282982406274 304.3047466156981,51.059521053991745 305.495222758869,52.84523526874812 306.0904608304545,54.035711411919046 306.0904608304545,54.63094948350451 306.6856989020399,55.22618755508995 306.6856989020399,55.82142562667542 307.2809369736254,56.41666369826089 307.8761750452108,57.6071398414318 308.47141311679627,58.797615984602714 309.06665118838174,59.988092127773626 309.6618892599672,60.5833301993591 309.6618892599672,61.17856827094457 309.6618892599672,61.17856827094457 309.6618892599672,60.5833301993591 309.6618892599672,60.5833301993591 309.06665118838174,60.5833301993591 309.06665118838174,60.5833301993591 309.06665118838174,60.5833301993591 309.6618892599672,60.5833301993591 309.6618892599672,61.17856827094457 311.4476034747235,62.964282485700956 312.04284154630903,63.55952055728639 314.42379383265086,65.34523477204277 316.20950804740727,66.53571091521368 318.5904603337491,67.13094898679915 320.3761745485055,67.13094898679915 322.16188876326186,67.7261870583846 322.7571268348473,67.7261870583846 325.13807912118915,68.32142512997007 326.3285552643601,68.91666320155554 327.519031407531,68.91666320155554 328.11426947911644,69.51190127314098 330.49522176545827,69.51190127314098 332.2809359802147,69.51190127314098 334.066650194971,69.51190127314098 335.85236440972744,69.51190127314098 338.2333166960692,69.51190127314098 338.82855476765474,69.51190127314098 340.6142689824111,69.51190127314098 341.80474512558203,69.51190127314098 342.39998319716756,69.51190127314098 344.18569741192385,68.91666320155554 345.3761735550948,67.13094898679915 345.9714116266802,66.53571091521368 348.9476019846075,63.55952055728639 350.7333161993639,61.17856827094457 352.5190304141202,58.797615984602714 353.7095065572912,57.6071398414318 357.87617305838944,53.4404733403336 359.0666492015603,52.84523526874812 363.23331570265856,49.27380683923536 364.42379184582944,48.08333069606445 366.8047441321713,46.89285455289354 367.9952202753422,45.70237840972263 369.18569641851315,45.10714033813716 369.7809344900986,44.51190226655169 370.97141063326944,44.51190226655169 371.56664870485497,44.51190226655169 372.7571248480259,44.51190226655169 373.9476009911968,44.51190226655169 375.1380771343677,44.51190226655169 376.3285532775387,45.10714033813716 376.92379134912414,45.70237840972263 378.114267492295,46.29761648130807 378.7095055638805,47.48809262447898 379.304743635466,48.08333069606445 381.0904578502223,50.464282982406274 381.6856959218078,51.059521053991745 382.28093399339326,53.4404733403336 382.87617206497873,54.035711411919046 382.87617206497873,54.63094948350451 383.47141013656415,54.63094948350451 383.47141013656415,54.63094948350451 382.87617206497873,54.035711411919046 382.87617206497873,54.035711411919046 382.87617206497873,54.035711411919046 382.87617206497873,54.035711411919046 383.47141013656415,54.035711411919046 384.0666482081497,54.035711411919046 387.6380766376624,54.63094948350451 390.6142669955897,55.82142562667542 393.5904573535169,57.011901769846325 395.9714096398588,58.20237791301727 398.94759999778614,58.797615984602714 400.7333142125425,58.797615984602714 403.1142664988843,58.797615984602714 404.89998071364073,58.797615984602714 406.68569492839714,57.6071398414318 410.25712335790985,55.82142562667542 412.04283757266614,54.035711411919046 413.8285517874226,51.654759125577215 416.2095040737644,49.86904491082083 417.9952182885208,48.08333069606445 419.7809325032772,46.29761648130807 420.97140864644814,44.51190226655169 422.7571228612045,43.321426123380775 423.94759900437543,42.13094998020986 425.7333132191318,41.53571190862439 426.9237893623027,40.34523576545348 428.11426550547367,40.34523576545348 429.89997972022996,39.74999769386801 430.4952177918154,39.74999769386801 431.09045586340096,39.74999769386801 432.2809320065718,40.34523576545348 432.8761700781573,41.53571190862439 433.47140814974273,43.321426123380775 434.6618842929136,44.51190226655169 435.257122364499,45.70237840972263 435.8523604360846,46.89285455289354 436.44759850767,47.48809262447898 437.63807465084096,48.67856876764993 437.63807465084096,49.27380683923536 438.23331272242655,49.86904491082083 438.23331272242655,50.464282982406274 438.82855079401196,51.059521053991745 438.82855079401196,51.059521053991745 438.82855079401196,51.059521053991745 439.4237888655974,51.059521053991745 439.4237888655974,51.059521053991745 440.01902693718284,49.86904491082083 441.8047411519392,48.08333069606445 444.1856934382811,45.10714033813716 446.56664572462284,43.321426123380775 448.9475980109647,41.53571190862439 450.7333122257211,40.34523576545348 452.51902644047743,39.74999769386801 453.7095025836484,39.74999769386801 455.4952167984047,39.74999769386801 456.68569294157567,39.74999769386801 457.8761690847466,40.34523576545348 458.471407156332,40.94047383703895 459.06664522791755,41.53571190862439 459.06664522791755,42.13094998020986 459.66188329950296,42.7261880517953 459.66188329950296,43.321426123380775 459.66188329950296,44.51190226655169 460.2571213710884,45.10714033813716 460.2571213710884,45.70237840972263 460.8523594426739,46.29761648130807 460.8523594426739,46.89285455289354 461.4475975142593,46.89285455289354 461.4475975142593,46.89285455289354 462.63807365743025,46.89285455289354 463.2333117290158,45.70237840972263 464.4237878721866,42.7261880517953 465.61426401535755,40.94047383703895 466.209502086943,38.559521550697106 467.99521630169943,36.77380733594072 469.18569244487037,35.583331192769805 469.7809305164558,34.988093121184335 470.97140665962667,34.39285504959889 472.7571208743831,34.39285504959889 473.947597017554,34.39285504959889 476.9237873754813,35.583331192769805 478.70950159023766,36.77380733594072 481.09045387657955,37.96428347911163 482.8761680913359,39.15475962228257 484.6618823060923,40.34523576545348 487.63807266401955,42.13094998020986 489.4237868787759,43.916664194966245 490.61426302194684,44.51190226655169 491.20950109353237,45.70237840972263 492.3999772367032,45.70237840972263 492.3999772367032,46.29761648130807 492.9952153082887,46.89285455289354 493.59045337987413,47.48809262447898 494.18569145145966,47.48809262447898 494.18569145145966,48.08333069606445 494.18569145145966,48.08333069606445 494.18569145145966,48.08333069606445 494.18569145145966,48.08333069606445 494.18569145145966,48.08333069606445 494.18569145145966,48.67856876764993 494.18569145145966,48.67856876764993 494.18569145145966,48.67856876764993 494.18569145145966,48.08333069606445 493.59045337987413,48.08333069606445 493.59045337987413,48.08333069606445 494.7809295230451,48.08333069606445 495.971405666216,48.08333069606445 500.13807216731425,47.48809262447898 507.87616709792513,46.29761648130807 511.4475955274379,45.70237840972263 515.0190239569507,45.70237840972263 516.8047381717071,45.70237840972263 518.5904523864634,45.70237840972263 519.7809285296344,45.70237840972263 520.9714046728053,46.29761648130807 521.5666427443907,46.29761648130807 522.7571188875617,46.29761648130807 523.3523569591471,45.70237840972263 525.1380711739035,43.916664194966245 526.3285473170744,42.13094998020986 527.5190234602453,40.94047383703895 529.3047376750018,39.74999769386801 531.0904518897581,38.559521550697106 532.2809280329291,37.96428347911163 536.4475945340272,37.36904540752619 537.0428326056127,37.36904540752619 538.2333087487837,37.96428347911163 538.8285468203691,37.96428347911163 539.4237848919545,38.559521550697106 539.4237848919545,38.559521550697106 541.209499106711,39.15475962228257 543.5904513930527,40.34523576545348 545.9714036793946,42.13094998020986 548.3523559657364,43.916664194966245 548.9475940373219,44.51190226655169 550.7333082520782,45.70237840972263 551.9237843952492,46.89285455289354 553.1142605384201,48.08333069606445 553.7094986100055,48.67856876764993 553.7094986100055,49.27380683923536 554.3047366815911,49.86904491082083 554.3047366815911,49.86904491082083 554.3047366815911,49.86904491082083 554.3047366815911,50.464282982406274 554.3047366815911,50.464282982406274 554.3047366815911,51.059521053991745 554.8999747531765,51.059521053991745 556.6856889679328,51.059521053991745 563.8285458269584,50.464282982406274 567.9952123280566,49.86904491082083 572.7571169007402,49.27380683923536 577.5190214734239,48.67856876764993 581.0904499029367,48.08333069606445 582.8761641176931,48.08333069606445 585.257116404035,47.48809262447898 589.4237829051331,45.10714033813716 591.804735191475,43.321426123380775 595.3761636209877,39.74999769386801 595.9714016925732,39.15475962228257 601.9237824084278,33.79761697801342 604.3047346947696,32.01190276325704 606.6856869811114,29.035712405329747 609.6618773390387,26.654760118987923 612.0428296253806,24.27380783264607 612.638067696966,23.67856976106063 613.828543840137,22.488093617889685 613.828543840137,21.892855546304247 615.019019983308,20.702379403133307 615.6142580548934,20.107141331547865 616.2094961264788,18.916665188376953 616.8047341980642,17.726189045206013 617.3999722696497,17.13095097362057 617.3999722696497,16.5357129020351 617.9952103412352,16.5357129020351 617.9952103412352,16.5357129020351 617.9952103412352,16.5357129020351 618.5904484128206,16.5357129020351 619.1856864844061,16.5357129020351 620.3761626275771,17.726189045206013 621.5666387707479,18.321427116791483 622.7571149139188,19.511903259962395 623.3523529855045,19.511903259962395 625.1380672002607,21.892855546304247 625.7333052718461,21.892855546304247 626.9237814150171,23.67856976106063 628.114257558188,24.27380783264607 628.7094956297734,25.464283975816983 629.3047337013589,26.059522047402453 629.3047337013589,26.654760118987923 629.3047337013589,27.249998190573365 629.8999717729444,28.440474333744277 630.4952098445298,29.035712405329747 630.4952098445298,29.630950476915217 630.4952098445298,29.630950476915217 630.4952098445298,30.226188548500662 630.4952098445298,30.226188548500662 630.4952098445298,30.226188548500662 630.4952098445298,30.82142662008613 631.0904479161153,30.82142662008613 631.0904479161153,31.4166646916716 631.0904479161153,31.4166646916716 631.0904479161153,32.01190276325704 631.6856859877007,33.20237890642795 632.2809240592862,33.79761697801342 632.2809240592862,34.39285504959889 632.2809240592862,34.39285504959889 632.8761621308716,34.988093121184335 632.8761621308716,34.988093121184335 632.8761621308716,34.39285504959889 632.2809240592862,34.39285504959889 632.2809240592862,34.39285504959889 632.2809240592862,34.39285504959889 632.2809240592862,34.39285504959889 631.6856859877007,34.39285504959889 631.6856859877007,34.39285504959889 631.6856859877007,34.39285504959889 631.6856859877007,34.39285504959889 631.6856859877007,34.39285504959889 631.6856859877007,34.39285504959889 632.2809240592862,34.39285504959889 633.4714002024571,34.39285504959889 634.6618763456279,34.39285504959889 635.8523524887989,34.39285504959889 637.0428286319699,34.39285504959889 637.6380667035553,34.39285504959889 638.2333047751408,34.39285504959889 638.8285428467262,34.39285504959889 638.8285428467262,34.39285504959889 639.4237809183116,34.39285504959889 639.4237809183116,34.39285504959889 640.0190189898972,34.39285504959889 640.6142570614826,34.39285504959889 640.6142570614826,34.39285504959889 641.2094951330681,34.39285504959889 641.2094951330681,34.39285504959889 641.2094951330681,34.39285504959889 641.2094951330681,34.39285504959889 641.8047332046535,34.39285504959889 641.8047332046535,34.39285504959889 642.399971276239,34.39285504959889 642.399971276239,34.39285504959889 642.9952093478244,34.39285504959889 642.9952093478244,34.39285504959889 642.9952093478244,34.39285504959889 642.9952093478244,34.39285504959889 642.9952093478244,34.988093121184335 642.9952093478244,34.988093121184335 642.9952093478244,35.583331192769805 643.5904474194098,35.583331192769805 643.5904474194098,36.77380733594072 643.5904474194098,37.36904540752619 643.5904474194098,38.559521550697106 643.5904474194098,40.34523576545348 643.5904474194098,42.13094998020986 643.5904474194098,45.70237840972263 643.5904474194098,48.08333069606445 643.5904474194098,50.464282982406274 643.5904474194098,52.84523526874812 643.5904474194098,54.035711411919046 643.5904474194098,55.82142562667542 643.5904474194098,57.011901769846325 643.5904474194098,57.6071398414318 643.5904474194098,58.20237791301727 644.1856854909954,58.797615984602714 644.1856854909954,58.797615984602714 644.1856854909954,59.392854056188185 644.1856854909954,59.988092127773626 644.1856854909954,60.5833301993591 644.1856854909954,61.17856827094457 643.5904474194098,62.36904441411548 643.5904474194098,63.55952055728639 642.9952093478244,64.7499967004573 642.9952093478244,66.53571091521368 642.9952093478244,68.32142512997007 642.399971276239,70.10713934472645 642.399971276239,71.89285355948283 642.399971276239,74.27380584582465 642.399971276239,74.86904391741012 642.399971276239,76.05952006058104 642.399971276239,76.6547581321665 642.399971276239,76.6547581321665 642.399971276239,76.6547581321665 642.399971276239,76.6547581321665 642.9952093478244,76.6547581321665 642.9952093478244,76.05952006058104 642.9952093478244,76.05952006058104 642.9952093478244,76.05952006058104 642.9952093478244,76.05952006058104 642.399971276239,76.05952006058104 642.399971276239,76.05952006058104 642.399971276239,76.05952006058104 642.399971276239,75.4642819889956 642.399971276239,75.4642819889956 642.399971276239,75.4642819889956 641.8047332046535,75.4642819889956 641.8047332046535,76.05952006058104 641.2094951330681,77.8452342753374 640.6142570614826,78.44047234692289 638.8285428467262,80.22618656167927 637.6380667035553,81.41666270485018 634.0666382740425,84.39285306277748 629.3047337013589,86.7738053491193 626.9237814150171,87.96428149229023 623.3523529855045,89.15475763546114 620.3761626275771,90.34523377863208 617.3999722696497,91.53570992180299 615.6142580548934,92.13094799338845 615.019019983308,92.13094799338845 613.2333057685515,92.72618606497392 611.4475915537951,93.32142413655936 609.6618773390387,93.91666220814483 607.280925052697,94.51190027973027 604.3047346947696,95.70237642290121 598.3523539789151,97.48809063765759 590.614259048304,99.27380485241395 585.257116404035,99.86904292399942 570.9714026859839,102.24999521034127 554.3047366815911,102.24999521034127 540.6142610351254,102.24999521034127 528.1142615318308,103.44047135351218 519.7809285296344,105.821423639854 504.8999767399979,109.39285206936677 497.75711988097237,109.98809014095224 495.971405666216,109.98809014095224 485.2571203776778,112.36904242729406 485.2571203776778,112.36904242729406 485.2571203776778,111.77380435570859 485.2571203776778,111.77380435570859 485.2571203776778,111.77380435570859 485.2571203776778,111.77380435570859 478.11426351865225,111.77380435570859 467.99521630169943,111.77380435570859 462.04283558584484,111.77380435570859 420.3761705748626,118.32142314314868 386.44760049449144,126.05951807375962 368.5904583469277,130.22618457485785 352.5190304141202,134.3928510759561 331.6856979086292,140.34523179181068 300.13808011459986,149.27380286559256 292.99522325557433,151.0595170803489 290.01903289764704,151.0595170803489 290.01903289764704,151.65475515193438 290.01903289764704,151.65475515193438 290.6142709692325,151.65475515193438 290.6142709692325,151.65475515193438 290.6142709692325,152.24999322351985 290.6142709692325,152.24999322351985 281.09046182386516,149.86904093717803 267.99522424898504,146.89285057925073 250.73332017300675,146.89285057925073 244.1857013855667,146.89285057925073 207.28094094726822,146.89285057925073 195.37617951555902,148.08332672242162 145.97141957396587,152.84523129510532 140.0190388581113,152.84523129510532 140.0190388581113,153.44046936669073 140.0190388581113,154.03570743827623 140.0190388581113,154.03570743827623 140.61427692969676,154.63094550986168 141.20951500128223,155.22618358144715 141.20951500128223,155.22618358144715 141.8047530728677,155.82142165303264 131.0904677843294,149.27380286559256 125.1380870684748,145.7023744360798 117.9952302094493,141.53570793498156 108.47142106408195,137.36904143388338 98.35237384712913,133.20237493278515 92.99523120286001,131.41666071802874 91.20951698810363,131.41666071802874 89.42380277334725,131.41666071802874 89.42380277334725,131.41666071802874 90.01904084493272,131.41666071802874 90.01904084493272,132.0118987896142 90.01904084493272,132.0118987896142 89.42380277334725,132.0118987896142 83.47142205749265,132.0118987896142 70.97142255419801,132.0118987896142 41.20951897492505,132.0118987896142 35.8523763306559,132.0118987896142 35.8523763306559,132.0118987896142 35.8523763306559,132.0118987896142 35.8523763306559,132.60713686119968 35.257138259070445,132.60713686119968 32.87618597272861,132.0118987896142 30.49523368638677,131.41666071802874 25.138091042117637,129.63094650327238 17.995234183092123,128.44047036010144 10.852377324066609,126.05951807375962 3.7095204650410945,124.86904193058874 1.923806250284727,124.86904193058874 -1.052384107642581,124.27380385900327 -2.838098322398949,123.6785657874178 -3.433336393984419,123.08332771583233 -3.433336393984419,123.08332771583233 -3.433336393984419,123.08332771583233 -3.433336393984419,122.48808964424686 -3.433336393984419,122.48808964424686 -3.433336393984419,122.48808964424686 -3.433336393984419,121.29761350107597 -3.433336393984419,119.51189928631956 -2.242860250813493,114.15475664205044 -1.6476221792280368,112.36904242729406 1.328568178699257,104.63094749668309 2.519044321870183,96.89285256607212 4.304758536626551,90.94047185021753 4.899996608212021,85.58332920594839 5.495234679797477,84.39285306277748 5.495234679797477,83.20237691960656 5.495234679797477,83.20237691960656 5.495234679797477,82.6071388480211 5.495234679797477,82.6071388480211 5.495234679797477,82.6071388480211 5.495234679797477,82.01190077643562 5.495234679797477,82.01190077643562 5.495234679797477,81.41666270485018 5.495234679797477,80.82142463326471 5.495234679797477,80.82142463326471 5.495234679797477,80.22618656167927 5.495234679797477,80.22618656167927 5.495234679797477,80.22618656167927 4.899996608212021,79.6309484900938 4.899996608212021,79.03571041850832 4.899996608212021,79.03571041850832 4.899996608212021,78.44047234692289 4.304758536626551,78.44047234692289 4.304758536626551,77.8452342753374 3.7095204650410945,76.6547581321665 3.7095204650410945,76.05952006058104 3.7095204650410945,76.05952006058104 3.114282393455639,75.4642819889956 3.114282393455639,74.86904391741012 2.519044321870183,74.27380584582465 2.519044321870183,74.27380584582465 2.519044321870183,74.27380584582465 2.519044321870183,73.67856777423921 2.519044321870183,73.08332970265374 1.923806250284727,73.08332970265374 1.923806250284727,73.08332970265374 1.923806250284727,72.48809163106827 1.923806250284727,72.48809163106827 " style="color: rgb(0, 0, 0);" class="selected" fill-opacity="1"/></g></svg>